<svg xmlns="http://www.w3.org/2000/svg" width="14.4" height="14.4" viewBox="0 0 14.4 14.4"><defs><style>.a{fill:#222;}</style></defs><path class="a" d="M7.2,1.3c1.922,0,2.15.007,2.91.042a2.705,2.705,0,0,1,2.951,2.951c.035.759.041.987.041,2.909s-.007,2.15-.041,2.909a2.706,2.706,0,0,1-2.951,2.951c-.76.035-.986.042-2.91.042s-2.15-.007-2.909-.042A2.706,2.706,0,0,1,1.339,10.11C1.3,9.351,1.3,9.123,1.3,7.2s.008-2.15.042-2.909A2.705,2.705,0,0,1,4.291,1.339C5.05,1.305,5.278,1.3,7.2,1.3ZM7.2,0C5.245,0,5,.008,4.232.043A3.975,3.975,0,0,0,.044,4.231C.008,5,0,5.245,0,7.2s.008,2.2.043,2.969a3.975,3.975,0,0,0,4.188,4.188C5,14.392,5.245,14.4,7.2,14.4s2.2-.008,2.969-.043a3.974,3.974,0,0,0,4.188-4.188c.035-.768.044-1.013.044-2.969s-.008-2.2-.043-2.968A3.974,3.974,0,0,0,10.17.044C9.4.008,9.156,0,7.2,0Zm0,3.5a3.7,3.7,0,1,0,3.7,3.7A3.7,3.7,0,0,0,7.2,3.5Zm0,6.1A2.4,2.4,0,1,1,9.6,7.2,2.4,2.4,0,0,1,7.2,9.6Zm3.844-7.107a.864.864,0,1,0,.863.864A.864.864,0,0,0,11.044,2.493Z"/></svg>