<svg xmlns="http://www.w3.org/2000/svg" width="100" height="100" viewBox="0 0 100 100"><defs><style>.a{fill:#222;}.b,.d,.f{fill:none;}.b,.d{stroke:#fff;}.b{stroke-dasharray:3 2;}.c{fill:#fff;}.e{stroke:none;}</style></defs><g transform="translate(-736 -272)"><g transform="translate(-18 -17)"><circle class="a" cx="50" cy="50" r="50" transform="translate(754 289)"/><path class="b" d="M-14040.222-20014.836s-13.574-2.8-18.271,24.184-22.779,22.914-22.779,22.914" transform="translate(14861.409 20330.652)"/><circle class="a" cx="4.688" cy="4.688" r="4.688" transform="translate(795.625 347.5)"/><circle class="a" cx="4.688" cy="4.688" r="4.688" transform="translate(801 326.375)"/><path class="c" d="M0,36.477l0,0L16.9,0,33.8,36.475,18.373,27.631,16.9,20.459l-1.467,7.172L0,36.475Z" transform="translate(804.793 313.999) rotate(45)"/><g transform="translate(1 -2)"><circle class="c" cx="3.125" cy="3.125" r="3.125" transform="translate(772.313 361.313)"/><circle class="a" cx="1.563" cy="1.563" r="1.563" transform="translate(773.875 362.875)"/></g><circle class="c" cx="3.125" cy="3.125" r="3.125" transform="translate(827.438 310.875)"/><g class="d" transform="translate(824.313 307.75)"><circle class="e" cx="6.25" cy="6.25" r="6.25"/><circle class="f" cx="6.25" cy="6.25" r="5.75"/></g><g class="d" transform="translate(824.313 307.75)"><circle class="e" cx="6.25" cy="6.25" r="6.25"/><circle class="f" cx="6.25" cy="6.25" r="5.75"/></g></g></g></svg>