<svg xmlns="http://www.w3.org/2000/svg" width="14.4" height="14.4" viewBox="0 0 14.4 14.4"><defs><style>.a{fill:#222;fill-rule:evenodd;}</style></defs><path class="a" d="M7.2,0A7.2,7.2,0,0,0,4.576,13.9,6.883,6.883,0,0,1,4.6,11.84c.131-.562.844-3.579.844-3.579A2.6,2.6,0,0,1,5.23,7.192c0-1,.58-1.748,1.3-1.748a.9.9,0,0,1,.911,1.014,14.477,14.477,0,0,1-.6,2.4,1.046,1.046,0,0,0,1.066,1.3c1.28,0,2.263-1.349,2.263-3.3A2.842,2.842,0,0,0,7.17,3.93,3.116,3.116,0,0,0,3.919,7.054,2.8,2.8,0,0,0,4.455,8.7.217.217,0,0,1,4.5,8.9l-.2.816c-.032.132-.1.16-.241.1A3.228,3.228,0,0,1,2.6,7.027c0-2.271,1.65-4.357,4.758-4.357A4.226,4.226,0,0,1,11.8,6.828c0,2.482-1.564,4.479-3.736,4.479a1.925,1.925,0,0,1-1.65-.827l-.449,1.712a8.012,8.012,0,0,1-.9,1.888A7.2,7.2,0,1,0,7.2,0Z"/></svg>