<svg xmlns="http://www.w3.org/2000/svg" width="8.174" height="14" viewBox="0 0 8.174 14"><defs><style>.a{fill:#222;}</style></defs><path class="a" d="M13.745,14.173A4.493,4.493,0,0,1,11.2,15h-.127c-3.055,0-3.627-2.355-3.627-3.755V6.791c0-.064,0-.064-.064-.064H5.664c-.064,0-.064,0-.064-.064V4.691l.064-.064A4.008,4.008,0,0,0,8.4,1.064C8.336,1,8.4,1,8.4,1h2.164c.064,0,.064,0,.064.064V4.118c0,.064,0,.064.064.064h2.418c.064,0,.064,0,.064.064V6.664c0,.064,0,.064-.064.064H10.691c-.064,0-.064,0-.064.064v4.264a1.227,1.227,0,0,0,1.336,1.4,3.53,3.53,0,0,0,1.082-.191c.064,0,.064,0,.064.064l.636,1.909C13.809,14.109,13.745,14.173,13.745,14.173Z" transform="translate(-5.6 -1)"/></svg>